<svg width="34" height="27" viewBox="0 0 34 27" fill="none" xmlns="http://www.w3.org/2000/svg">
<path d="M32.8662 25.4355C32.0707 25.4334 31.2888 25.2282 30.5947 24.8395C29.9005 24.4508 29.3171 23.8914 28.8995 23.2142C28.478 23.8924 27.8906 24.4519 27.1926 24.8398C26.4947 25.2278 25.7094 25.4314 24.9109 25.4314C24.1124 25.4314 23.3271 25.2278 22.6292 24.8398C21.9313 24.4519 21.3438 23.8924 20.9223 23.2142C20.5031 23.894 19.9167 24.4551 19.2191 24.844C18.5215 25.2329 17.7359 25.4365 16.9372 25.4355C14.8689 25.4355 11.4533 22.2962 9.31413 20.0961C9.17574 19.9536 8.99997 19.8529 8.80698 19.8057C8.61399 19.7585 8.4116 19.7666 8.22303 19.8292C8.03445 19.8917 7.86733 20.0062 7.74084 20.1594C7.61435 20.3126 7.53361 20.4984 7.50788 20.6954C7.36621 22.0086 6.83213 23.3105 5.25396 23.3105C4.30812 23.2648 3.39767 22.9367 2.64011 22.3686C1.88255 21.8004 1.31265 21.0183 1.00396 20.123" stroke="#0E1B4D" stroke-width="2" stroke-linecap="round" stroke-linejoin="round"/>
<path d="M18 20.123L22.8875 18.9005C24.0268 18.6152 25.0946 18.097 26.0236 17.3784C26.9526 16.6598 27.7226 15.7566 28.285 14.7255L32.875 6.31055L1 12.6855" stroke="#0E1B4D" stroke-width="2" stroke-linecap="round" stroke-linejoin="round"/>
<path d="M25.2861 7.8278L18.0002 4.18555L4.18772 6.31055" stroke="#0E1B4D" stroke-width="2" stroke-linecap="round" stroke-linejoin="round"/>
<path d="M6.31254 11.6236L4.18754 6.31109L1.9662 2.60934C1.86896 2.4482 1.81632 2.26409 1.81369 2.0759C1.81107 1.8877 1.85854 1.7022 1.95125 1.53841C2.04396 1.37461 2.17857 1.23843 2.34127 1.14382C2.50397 1.0492 2.68891 0.999569 2.87712 1H6.31254L11.54 5.18059" stroke="#0E1B4D" stroke-width="2" stroke-linecap="round" stroke-linejoin="round"/>
</svg>
