<svg width="55" height="55" viewBox="0 0 55 55" fill="none" xmlns="http://www.w3.org/2000/svg">
<circle cx="27.5" cy="27.5" r="27.5" fill="#E9B4EB"/>
<g clip-path="url(#clip0_1141_1385)">
<path d="M33.6875 27.375C32.2412 27.375 30.8274 27.8039 29.6249 28.6074C28.4224 29.4109 27.4851 30.5529 26.9316 31.8891C26.3782 33.2253 26.2334 34.6956 26.5155 36.1141C26.7977 37.5326 27.4941 38.8355 28.5168 39.8582C29.5395 40.8809 30.8424 41.5773 32.2609 41.8595C33.6794 42.1416 35.1497 41.9968 36.4859 41.4434C37.8221 40.8899 38.9641 39.9526 39.7676 38.7501C40.5711 37.5476 41 36.1338 41 34.6875C40.9976 32.7488 40.2264 30.8903 38.8556 29.5194C37.4847 28.1486 35.6262 27.3774 33.6875 27.375ZM32 38.9051C31.7762 38.9051 31.5616 38.8162 31.4034 38.658C31.2451 38.4998 31.1563 38.2852 31.1563 38.0614C31.1563 37.8376 31.2451 37.623 31.4034 37.4648C31.5616 37.3065 31.7762 37.2176 32 37.2176H34.2871C34.4417 37.2175 34.5914 37.1636 34.7106 37.0652C34.8298 36.9668 34.911 36.83 34.9404 36.6783C34.9698 36.5265 34.9455 36.3693 34.8717 36.2335C34.7978 36.0977 34.6791 35.9918 34.5358 35.934L32.2126 35.0047C31.7428 34.8179 31.346 34.4843 31.0813 34.0535C30.8166 33.6227 30.6983 33.1179 30.744 32.6144C30.7896 32.1108 30.9969 31.6356 31.3347 31.2594C31.6726 30.8833 32.123 30.6265 32.6188 30.5273C32.6824 30.5145 32.7396 30.48 32.7806 30.4297C32.8217 30.3795 32.844 30.3165 32.8438 30.2516V29.9051C32.8438 29.6813 32.9326 29.4667 33.0909 29.3085C33.2491 29.1503 33.4637 29.0614 33.6875 29.0614C33.9113 29.0614 34.1259 29.1503 34.2841 29.3085C34.4424 29.4667 34.5313 29.6813 34.5313 29.9051V30.1864C34.5313 30.261 34.5609 30.3325 34.6136 30.3852C34.6664 30.438 34.7379 30.4676 34.8125 30.4676H35.375C35.5988 30.4676 35.8134 30.5565 35.9716 30.7148C36.1299 30.873 36.2188 31.0876 36.2188 31.3114C36.2188 31.5352 36.1299 31.7498 35.9716 31.908C35.8134 32.0662 35.5988 32.1551 35.375 32.1551H33.0879C32.9333 32.1553 32.7836 32.2091 32.6644 32.3075C32.5452 32.4059 32.464 32.5427 32.4346 32.6945C32.4052 32.8462 32.4295 33.0035 32.5033 33.1392C32.5772 33.275 32.6959 33.3809 32.8393 33.4387L35.1624 34.368C35.6322 34.5548 36.029 34.8885 36.2937 35.3193C36.5584 35.7501 36.6767 36.2549 36.631 36.7584C36.5854 37.2619 36.3781 37.7372 36.0403 38.1133C35.7024 38.4894 35.252 38.7463 34.7563 38.8455C34.6926 38.8583 34.6354 38.8927 34.5944 38.943C34.5533 38.9933 34.531 39.0562 34.5313 39.1211V39.4676C34.5313 39.6914 34.4424 39.906 34.2841 40.0642C34.1259 40.2225 33.9113 40.3114 33.6875 40.3114C33.4637 40.3114 33.2491 40.2225 33.0909 40.0642C32.9326 39.906 32.8438 39.6914 32.8438 39.4676V39.1875C32.8438 39.1129 32.8141 39.0414 32.7614 38.9886C32.7086 38.9359 32.6371 38.9062 32.5625 38.9062L32 38.9051Z" fill="#0E1B4D"/>
<path d="M20.0993 36.9375C20.3064 37.146 20.5529 37.3112 20.8244 37.4236C21.096 37.536 21.3871 37.5933 21.681 37.5923H21.6945C21.9906 37.5911 22.2834 37.5308 22.5558 37.4149C22.8282 37.2989 23.0747 37.1298 23.2808 36.9173L24.6499 35.5211C24.7022 35.4664 24.7428 35.4015 24.7691 35.3305C24.7954 35.2595 24.8069 35.1839 24.8029 35.1083C24.7423 33.8723 24.9381 32.6371 25.3778 31.4804C25.8175 30.3237 26.4918 29.2705 27.3581 28.3869C28.2245 27.5033 29.2643 26.8085 30.4121 26.3461C31.5599 25.8836 32.791 25.6636 34.0279 25.6999C34.1034 25.7027 34.1786 25.6899 34.2489 25.6622C34.3192 25.6345 34.383 25.5926 34.4363 25.539L35.4926 24.4612C36.1536 23.7065 36.5422 22.7518 36.5963 21.75V17.25C36.5963 16.6533 36.3592 16.081 35.9373 15.659C35.5153 15.2371 34.943 15 34.3463 15H29.5538C28.5435 15.0384 27.5804 15.4375 26.8391 16.125L14.6588 28.3132C14.237 28.7352 14 29.3074 14 29.904C14 30.5006 14.237 31.0728 14.6588 31.4947L20.0993 36.9375ZM28.1588 21.1875C28.1588 20.7425 28.2907 20.3075 28.538 19.9375C28.7852 19.5675 29.1366 19.2791 29.5477 19.1088C29.9589 18.9385 30.4113 18.8939 30.8477 18.9807C31.2842 19.0675 31.6851 19.2818 31.9998 19.5965C32.3144 19.9112 32.5287 20.3121 32.6155 20.7485C32.7024 21.185 32.6578 21.6374 32.4875 22.0485C32.3172 22.4597 32.0288 22.8111 31.6588 23.0583C31.2888 23.3055 30.8538 23.4375 30.4088 23.4375C29.812 23.4375 29.2397 23.2004 28.8178 22.7785C28.3958 22.3565 28.1588 21.7842 28.1588 21.1875Z" fill="#0E1B4D"/>
</g>
<defs>
<clipPath id="clip0_1141_1385">
<rect width="27" height="27" fill="white" transform="translate(14 15)"/>
</clipPath>
</defs>
</svg>
