<svg width="10" height="15" viewBox="0 0 10 15" fill="none" xmlns="http://www.w3.org/2000/svg">
<path d="M9.91322 6.31888C9.83711 6.1553 9.71634 6.01683 9.56498 5.9196C9.41361 5.82237 9.23788 5.77037 9.05826 5.76968H7.58245C7.50636 5.76968 7.43338 5.73929 7.37958 5.68519C7.32578 5.6311 7.29555 5.55773 7.29555 5.48123V0.577626C7.2957 0.458404 7.25911 0.342064 7.1908 0.244605C7.1225 0.147147 7.02584 0.0733581 6.91412 0.0333875C6.8024 -0.00658297 6.68111 -0.0107717 6.56693 0.0213971C6.45274 0.053566 6.35127 0.120512 6.27648 0.213029L0.225188 7.66766C0.108419 7.8055 0.0333311 7.97405 0.00879642 8.15342C-0.0157382 8.33278 0.0113054 8.51546 0.0867323 8.67987C0.162159 8.84428 0.282818 8.98355 0.434451 9.08122C0.586084 9.17888 0.762355 9.23088 0.942438 9.23105H2.41825C2.49434 9.23105 2.56732 9.26144 2.62112 9.31553C2.67492 9.36962 2.70515 9.44299 2.70515 9.51949V14.4231C2.70513 14.5421 2.74174 14.6583 2.80995 14.7555C2.87817 14.8528 2.97464 14.9265 3.08615 14.9665C3.14796 14.989 3.21323 15.0003 3.27895 15C3.36419 15.0001 3.44839 14.9811 3.52541 14.9444C3.60243 14.9076 3.67034 14.8541 3.72422 14.7877L9.77551 7.33306C9.89204 7.19469 9.9669 7.02578 9.99129 6.84614C10.0157 6.6665 9.9886 6.48359 9.91322 6.31888Z" fill="black"/>
</svg>
