<svg width="16" height="16" viewBox="0 0 16 16" fill="none" xmlns="http://www.w3.org/2000/svg">
<g clip-path="url(#clip0_1086_321)">
<path d="M14.332 2H12.4987C12.4545 2 12.4121 1.98244 12.3808 1.95118C12.3496 1.91993 12.332 1.87754 12.332 1.83333V0.666667C12.332 0.489856 12.2618 0.320286 12.1368 0.195262C12.0117 0.0702379 11.8422 0 11.6654 0C11.4886 0 11.319 0.0702379 11.194 0.195262C11.0689 0.320286 10.9987 0.489856 10.9987 0.666667V3.83333C10.9987 3.96594 10.946 4.09312 10.8523 4.18689C10.7585 4.28065 10.6313 4.33333 10.4987 4.33333C10.3661 4.33333 10.2389 4.28065 10.1451 4.18689C10.0514 4.09312 9.9987 3.96594 9.9987 3.83333V2.33333C9.9987 2.24493 9.96358 2.16014 9.90107 2.09763C9.83855 2.03512 9.75377 2 9.66536 2H5.4987C5.45461 2 5.41232 1.98253 5.38108 1.95142C5.34984 1.92031 5.33221 1.87809 5.33203 1.834V0.666667C5.33203 0.489856 5.26179 0.320286 5.13677 0.195262C5.01174 0.0702379 4.84218 0 4.66536 0C4.48855 0 4.31898 0.0702379 4.19396 0.195262C4.06894 0.320286 3.9987 0.489856 3.9987 0.666667V3.83333C3.9987 3.96594 3.94602 4.09312 3.85225 4.18689C3.75848 4.28065 3.63131 4.33333 3.4987 4.33333C3.36609 4.33333 3.23891 4.28065 3.14514 4.18689C3.05138 4.09312 2.9987 3.96594 2.9987 3.83333V2.33333C2.9987 2.24493 2.96358 2.16014 2.90107 2.09763C2.83855 2.03512 2.75377 2 2.66536 2H1.66536C1.31174 2 0.972604 2.14048 0.722556 2.39052C0.472507 2.64057 0.332031 2.97971 0.332031 3.33333V14.6667C0.332031 15.0203 0.472507 15.3594 0.722556 15.6095C0.972604 15.8595 1.31174 16 1.66536 16H14.332C14.6857 16 15.0248 15.8595 15.2748 15.6095C15.5249 15.3594 15.6654 15.0203 15.6654 14.6667V3.33333C15.6654 2.97971 15.5249 2.64057 15.2748 2.39052C15.0248 2.14048 14.6857 2 14.332 2ZM13.9987 14.6667H1.9987C1.91029 14.6667 1.82551 14.6315 1.763 14.569C1.70048 14.5065 1.66536 14.4217 1.66536 14.3333V6.33333C1.66536 6.24493 1.70048 6.16014 1.763 6.09763C1.82551 6.03512 1.91029 6 1.9987 6H13.9987C14.0871 6 14.1719 6.03512 14.2344 6.09763C14.2969 6.16014 14.332 6.24493 14.332 6.33333V14.3333C14.332 14.4217 14.2969 14.5065 14.2344 14.569C14.1719 14.6315 14.0871 14.6667 13.9987 14.6667Z" fill="#606060"/>
</g>
<defs>
<clipPath id="clip0_1086_321">
<rect width="16" height="16" fill="white"/>
</clipPath>
</defs>
</svg>
