<svg width="18" height="18" viewBox="0 0 18 18" fill="none" xmlns="http://www.w3.org/2000/svg">
<path d="M9.53333 1.25001C8.2027 1.24809 6.89579 1.60231 5.74825 2.27589C4.6007 2.94948 3.65432 3.91789 3.00732 5.08063C2.36032 6.24337 2.03627 7.55808 2.06881 8.88831C2.10135 10.2185 2.48928 11.5158 3.19235 12.6456L1 17.25L5.60373 15.0569C6.58554 15.6676 7.69576 16.0419 8.8469 16.1504C9.99804 16.2589 11.1586 16.0985 12.2372 15.682C13.3158 15.2654 14.283 14.6041 15.0624 13.7501C15.8418 12.896 16.4123 11.8727 16.7288 10.7606C17.0453 9.64851 17.0992 8.47813 16.8863 7.34166C16.6734 6.2052 16.1994 5.13372 15.5018 4.21165C14.8042 3.28958 13.902 2.54212 12.8662 2.02817C11.8305 1.51423 10.6896 1.24785 9.53333 1.25001Z" stroke="white" stroke-width="1.5" stroke-linecap="round" stroke-linejoin="round"/>
<path d="M7.85226 7.4727C7.7214 7.20606 7.51841 6.98144 7.26632 6.82435C7.01424 6.66726 6.72316 6.58398 6.42613 6.58398C6.12911 6.58398 5.83803 6.66726 5.58594 6.82435C5.33386 6.98144 5.13086 7.20606 5 7.4727" stroke="white" stroke-width="1.5" stroke-linecap="round" stroke-linejoin="round"/>
<path d="M14.2483 7.4727C14.1174 7.20606 13.9144 6.98144 13.6623 6.82435C13.4102 6.66726 13.1192 6.58398 12.8221 6.58398C12.5251 6.58398 12.234 6.66726 11.9819 6.82435C11.7299 6.98144 11.5269 7.20606 11.396 7.4727" stroke="white" stroke-width="1.5" stroke-linecap="round" stroke-linejoin="round"/>
<path d="M6.87061 11.3828C7.62326 12.0691 8.6051 12.4495 9.62367 12.4495C10.6422 12.4495 11.6241 12.0691 12.3767 11.3828" stroke="white" stroke-width="1.5" stroke-linecap="round" stroke-linejoin="round"/>
</svg>
