<svg width="26" height="26" viewBox="0 0 26 26" fill="none" xmlns="http://www.w3.org/2000/svg">
<g clip-path="url(#clip0_657_5202)">
<mask id="mask0_657_5202" style="mask-type:luminance" maskUnits="userSpaceOnUse" x="-6" y="-6" width="38" height="38">
<path d="M-5.2002 -5.20075H31.1998V31.1992H-5.2002V-5.20075Z" fill="white"/>
</mask>
<g mask="url(#mask0_657_5202)">
<path d="M26 12.9995C26 5.81983 20.1797 -0.000473431 13 -0.000473431C5.82031 -0.000473431 0 5.81983 0 12.9995C0 19.0963 4.19718 24.2119 9.85951 25.6167V16.9721H7.17881V12.9995H9.85951V11.2877C9.85951 6.86295 11.8619 4.81207 16.206 4.81207C17.0296 4.81207 18.4507 4.97353 19.0321 5.13504V8.73625C18.7252 8.70396 18.1923 8.68778 17.5302 8.68778C15.3986 8.68778 14.5749 9.49524 14.5749 11.5946V12.9995H18.8212L18.0917 16.9721H14.5749V25.9043C21.0118 25.1268 26 19.646 26 12.9995Z" fill="#0866FF"/>
<path d="M18.0916 16.9726L18.8211 13H14.5749V11.595C14.5749 9.49568 15.3985 8.68828 17.5301 8.68828C18.1922 8.68828 18.7251 8.7044 19.032 8.73669V5.13554C18.4506 4.97402 17.0295 4.81251 16.2059 4.81251C11.8619 4.81251 9.85941 6.86344 9.85941 11.2882V13H7.17871V16.9726H9.85941V25.6172C10.8653 25.8667 11.917 26 12.9999 26C13.5331 26 14.0585 25.9671 14.5749 25.9048V16.9726H18.0916Z" fill="white"/>
</g>
</g>
<defs>
<clipPath id="clip0_657_5202">
<rect width="26" height="26" fill="white"/>
</clipPath>
</defs>
</svg>
