<svg xmlns="http://www.w3.org/2000/svg" fill="none" shape-rendering="geometricPrecision" viewBox="0 0 18 19"><path stroke="#2f2f2f" stroke-linecap="round" stroke-linejoin="round" stroke-width="1.5" d="M6.867 7.365a2.133 2.133 0 0 1 4.09-.847c.156.359.21.754.156 1.141a2.13 2.13 0 0 1-1.402 1.718A1.07 1.07 0 0 0 9 10.383v.716" vector-effect="non-scaling-stroke"/><path fill="#2f2f2f" d="M9 12.75a.75.75 0 1 0 0 1.5.75.75 0 0 0 0-1.5"/><path stroke="#2f2f2f" stroke-linecap="round" stroke-linejoin="round" stroke-miterlimit="10" stroke-width="1.5" d="M9 17.5a8 8 0 1 0 0-16 8 8 0 0 0 0 16" vector-effect="non-scaling-stroke"/></svg>