<svg width="18" height="19" viewBox="0 0 18 19" fill="none" xmlns="http://www.w3.org/2000/svg">
<path d="M6.8667 7.36535C6.86677 6.97426 6.97435 6.59071 7.17768 6.25663C7.38101 5.92255 7.67226 5.65079 8.01961 5.47106C8.36695 5.29132 8.75702 5.21053 9.14718 5.2375C9.53734 5.26448 9.91258 5.39819 10.2319 5.62401C10.5512 5.84984 10.8023 6.1591 10.9577 6.51798C11.1131 6.87686 11.1669 7.27157 11.1131 7.65895C11.0594 8.04633 10.9002 8.41148 10.6529 8.71449C10.4057 9.0175 10.0799 9.24672 9.71114 9.37708C9.50309 9.45064 9.32297 9.58692 9.19561 9.76713C9.06825 9.94735 8.99992 10.1626 9.00003 10.3833V11.0987" stroke="#2f2f2f" stroke-width="1.5" stroke-linecap="round" stroke-linejoin="round"/>
<path d="M9 12.75C8.85166 12.75 8.70666 12.794 8.58332 12.8764C8.45999 12.9588 8.36386 13.0759 8.30709 13.213C8.25032 13.35 8.23547 13.5008 8.26441 13.6463C8.29335 13.7918 8.36478 13.9254 8.46967 14.0303C8.57456 14.1352 8.7082 14.2066 8.85368 14.2356C8.99917 14.2645 9.14997 14.2497 9.28701 14.1929C9.42406 14.1361 9.54119 14.04 9.6236 13.9167C9.70601 13.7933 9.75 13.6483 9.75 13.5C9.75 13.3011 9.67098 13.1103 9.53033 12.9697C9.38968 12.829 9.19891 12.75 9 12.75Z" fill="#2f2f2f"/>
<path d="M9 17.5C13.4183 17.5 17 13.9183 17 9.5C17 5.08172 13.4183 1.5 9 1.5C4.58172 1.5 1 5.08172 1 9.5C1 13.9183 4.58172 17.5 9 17.5Z" stroke="#2f2f2f" stroke-width="1.5" stroke-miterlimit="10"/>
</svg>
