<svg width="26" height="26" viewBox="0 0 26 26" fill="none" xmlns="http://www.w3.org/2000/svg">
<g clip-path="url(#clip0_657_5176)">
<path d="M13.2884 0.339844C9.44812 0.339844 6.02425 2.02416 3.70456 4.69444C2.99769 5.50897 2.39197 6.41369 1.91016 7.39234L6.17619 10.6509C6.67059 9.15059 7.62528 7.86319 8.87369 6.95238C10.1099 6.05172 11.6342 5.51953 13.288 5.51953C15.0747 5.51953 16.6883 6.15288 17.9562 7.18881L21.6446 3.50575C19.3976 1.54844 16.5161 0.339844 13.2884 0.339844Z" fill="#FF7976"/>
<path d="M1.91016 7.39194L6.17619 10.6505C6.67059 9.15019 7.62528 7.86278 8.87369 6.95197C10.1099 6.05131 11.6342 5.51912 13.288 5.51912C15.0747 5.51912 16.6883 6.15247 17.9562 7.18841L21.6446 3.50534C19.3968 1.54884 16.5157 0.339844 13.288 0.339844" fill="#E3443A"/>
<path d="M5.79637 13.0013C5.79637 12.8847 5.80491 12.7697 5.81019 12.6543C5.8435 11.9572 5.96741 11.2853 6.17622 10.6511L1.91019 7.39258C1.12572 8.98386 0.670719 10.7657 0.619531 12.6543C0.616281 12.7701 0.609375 12.8851 0.609375 13.0013C0.609375 13.1179 0.616281 13.2332 0.619125 13.349C0.670313 15.2352 1.12531 17.0162 1.90775 18.6059L6.17256 15.3413C5.96578 14.7104 5.84269 14.0413 5.81019 13.3486C5.80491 13.2332 5.79637 13.1183 5.79637 13.0013Z" fill="#F4D72C"/>
<path d="M1.9082 18.6059L6.17302 15.3413C5.96623 14.7104 5.84314 14.0413 5.81064 13.3486C5.80536 13.2328 5.79683 13.1179 5.79683 13.0009C5.79683 12.8843 5.80536 12.7693 5.81064 12.6539C5.84395 11.9568 5.96786 11.2849 6.17667 10.6507L1.91023 7.39258" fill="#F7B92B"/>
<path d="M17.4992 19.3755C16.3564 20.0953 14.9171 20.4825 13.2884 20.4825C12.3353 20.4825 11.4274 20.3013 10.5905 19.9792C9.97422 19.7419 9.39897 19.4246 8.87369 19.0428C7.62569 18.134 6.67059 16.8506 6.17619 15.3516L1.91016 18.6097C2.39116 19.5867 2.99566 20.4902 3.70131 21.3035C6.021 23.9767 9.44731 25.6622 13.2884 25.6622C14.4503 25.6622 15.5922 25.507 16.6826 25.2048C18.4953 24.7018 20.1658 23.7914 21.5491 22.5068L17.4992 19.3755Z" fill="#59C96E"/>
<path d="M1.91016 18.6094C2.39116 19.5864 2.99566 20.4899 3.70131 21.3032C6.021 23.9763 9.44731 25.6619 13.2884 25.6619C14.4503 25.6619 15.5922 25.5067 16.6826 25.2044C18.4953 24.7015 20.1658 23.7911 21.5491 22.5065L17.4988 19.3756C16.356 20.0954 14.9167 20.4826 13.288 20.4826C12.3349 20.4826 11.427 20.3014 10.5901 19.9793C9.97381 19.742 9.39856 19.4247 8.87328 19.0428" fill="#40A557"/>
<path d="M25.1026 10.5625H24.3425H13.4062V12.6531V13.3477V15.4375H20.0887C19.7486 17.0625 18.8232 18.5396 17.4988 19.3745L21.5491 22.5054C22.6598 21.4744 23.5824 20.1805 24.2462 18.6838C24.9742 17.0442 25.3906 15.0804 25.3906 12.9224C25.3906 12.1749 25.2757 11.375 25.1026 10.5625Z" fill="#0FAEF4"/>
<path d="M21.5488 22.5054C22.6595 21.4744 23.5902 20.1658 24.254 18.6692C24.982 17.0296 25.3944 15.0731 25.3944 12.9155C25.3944 12.1676 25.2754 11.375 25.1023 10.5625H24.3747" fill="#4087ED"/>
<path d="M13.4062 12.5938V13.3477V15.4375H19.9062" fill="#4087ED"/>
</g>
<defs>
<clipPath id="clip0_657_5176">
<rect width="26" height="26" fill="white"/>
</clipPath>
</defs>
</svg>
