<svg xmlns="http://www.w3.org/2000/svg" fill="none" viewBox="0 0 55 55"><g clip-path="url(#a)"><path fill="#0e1b4d" d="m38.469 49.648-2.748-.683 1.594-6.413a13.23 13.23 0 0 0-5.1-13.913 13.24 13.24 0 0 0 11.023-9.904l1.595-6.412 2.748.683a1.888 1.888 0 1 0 .911-3.664L17.347 1.596a1.888 1.888 0 1 0-.912 3.664l2.749.684-1.595 6.412a13.24 13.24 0 0 0 5.1 13.914 13.235 13.235 0 0 0-11.023 9.903l-1.595 6.413-2.748-.684a1.888 1.888 0 0 0-.911 3.665l31.146 7.745a1.888 1.888 0 0 0 .91-3.664M22.786 16.411a1.89 1.89 0 0 1 1.879-.59l10.7 2.66a1.888 1.888 0 0 1 .763 3.271 8.667 8.667 0 0 1-13.67-3.4 1.89 1.89 0 0 1 .328-1.94m-5.83 21.331 6.915-3.992a2.914 2.914 0 0 1 3.792.943l4.238 6.764a2.546 2.546 0 0 1-.236 3.054 2.76 2.76 0 0 1-2.733.82l-11.156-2.774a2.76 2.76 0 0 1-2.033-1.992 2.55 2.55 0 0 1 1.213-2.823"/></g><defs><clipPath id="a"><path fill="#fff" d="m10.935 0 43.97 10.935-10.934 43.97L0 43.972z"/></clipPath></defs></svg>