<svg fill="none" shape-rendering="geometricPrecision" viewBox="0 0 45 45"><circle cx="22.5" cy="22.5" r="22.5" fill="#2f2f2f"/><g clip-path="url(#a)"><path fill="#fff" d="M23 13.163c3.204 0 3.584.012 4.85.07 3.252.148 4.771 1.691 4.919 4.919.058 1.265.069 1.645.069 4.849s-.012 3.584-.069 4.849c-.149 3.225-1.664 4.771-4.919 4.919-1.266.058-1.644.07-4.85.07-3.204 0-3.584-.012-4.849-.07-3.26-.149-4.771-1.699-4.919-4.92-.058-1.265-.07-1.644-.07-4.849s.013-3.583.07-4.849c.149-3.227 1.664-4.771 4.919-4.919 1.266-.057 1.645-.069 4.849-.069M23 11c-3.259 0-3.667.014-4.947.072-4.358.2-6.78 2.618-6.98 6.98C11.014 19.333 11 19.741 11 23s.014 3.668.072 4.948c.2 4.358 2.618 6.78 6.98 6.98 1.281.058 1.689.072 4.948.072s3.668-.014 4.948-.072c4.354-.2 6.782-2.618 6.979-6.98.059-1.28.073-1.689.073-4.948s-.014-3.667-.072-4.947c-.196-4.354-2.617-6.78-6.979-6.98C26.668 11.014 26.259 11 23 11m0 5.838a6.162 6.162 0 1 0 0 12.324 6.162 6.162 0 0 0 0-12.324M23 27a4 4 0 1 1 0-8 4 4 0 0 1 0 8m6.406-11.845a1.44 1.44 0 1 0 0 2.881 1.44 1.44 0 0 0 0-2.881"/></g><defs><clipPath id="a"><path fill="#fff" d="M11 11h24v24H11z"/></clipPath></defs></svg>