<svg width="16" height="16" viewBox="0 0 16 16" fill="none" xmlns="http://www.w3.org/2000/svg">
<g clip-path="url(#clip0_1086_323)">
<path d="M8.00166 14.3974C8.11349 14.3974 8.22352 14.3692 8.32161 14.3155C8.4197 14.2618 8.50271 14.1843 8.56299 14.0901C9.86832 12.0481 12.9043 7.06609 12.9043 4.89943C12.9043 3.59898 12.3877 2.3518 11.4682 1.43225C10.5486 0.512693 9.30143 -0.00390625 8.00099 -0.00390625C6.70054 -0.00390625 5.45336 0.512693 4.53381 1.43225C3.61426 2.3518 3.09766 3.59898 3.09766 4.89943C3.09766 7.06609 6.13366 12.0488 7.43966 14.0901C7.49967 14.1847 7.58272 14.2625 7.68101 14.3163C7.7793 14.37 7.88963 14.3979 8.00166 14.3974ZM5.66832 4.66409C5.66832 4.2026 5.80517 3.75148 6.06156 3.36776C6.31795 2.98405 6.68237 2.68498 7.10873 2.50837C7.53509 2.33177 8.00424 2.28556 8.45687 2.37559C8.90949 2.46563 9.32525 2.68786 9.65157 3.01418C9.97789 3.3405 10.2001 3.75626 10.2902 4.20888C10.3802 4.66151 10.334 5.13066 10.1574 5.55702C9.98077 5.98338 9.6817 6.3478 9.29799 6.60419C8.91427 6.86058 8.46315 6.99743 8.00166 6.99743C7.38282 6.99743 6.78933 6.75159 6.35174 6.31401C5.91416 5.87642 5.66832 5.28293 5.66832 4.66409Z" fill="#606060"/>
</g>
<defs>
<clipPath id="clip0_1086_323">
<rect width="16" height="16" fill="white"/>
</clipPath>
</defs>
</svg>
