<svg width="16" height="16" viewBox="0 0 16 16" fill="none" xmlns="http://www.w3.org/2000/svg">
<g clip-path="url(#clip0_1086_344)">
<path d="M14.6492 9.91975C13.4531 10.3615 12.1555 10.4511 10.91 10.1781C9.66446 9.90506 8.5233 9.28079 7.62166 8.37921C6.72001 7.47763 6.09564 6.33652 5.82252 5.09105C5.54939 3.84557 5.63894 2.54791 6.08056 1.35175C6.12494 1.23219 6.13408 1.10241 6.10692 0.977807C6.07976 0.853202 6.01743 0.739002 5.92732 0.648754C5.83722 0.558506 5.72311 0.495997 5.59855 0.468642C5.47399 0.441287 5.34419 0.450234 5.22456 0.494421C3.96689 0.960382 2.84656 1.73506 1.96658 2.74723C1.0866 3.7594 0.475215 4.97656 0.188648 6.2868C-0.0979199 7.59704 -0.0504733 8.9583 0.326624 10.2454C0.703722 11.5325 1.39837 12.7042 2.34669 13.6526C3.295 14.601 4.46656 15.2958 5.75361 15.6731C7.04067 16.0504 8.40192 16.098 9.7122 15.8116C11.0225 15.5252 12.2397 14.914 13.252 14.0341C14.2643 13.1543 15.0391 12.034 15.5052 10.7764C15.5494 10.6569 15.5584 10.5272 15.5312 10.4027C15.5039 10.2782 15.4416 10.1642 15.3515 10.074C15.2614 9.98387 15.1474 9.92142 15.023 9.89409C14.8985 9.86675 14.7688 9.87566 14.6492 9.91975Z" fill="#606060"/>
</g>
<defs>
<clipPath id="clip0_1086_344">
<rect width="16" height="16" fill="white"/>
</clipPath>
</defs>
</svg>
