<svg width="25" height="25" viewBox="0 0 25 25" fill="none" xmlns="http://www.w3.org/2000/svg">
<path d="M16.6673 21.875V19.7917C16.6673 18.6866 16.2283 17.6268 15.4469 16.8454C14.6655 16.064 13.6057 15.625 12.5007 15.625H6.25065C5.14558 15.625 4.08577 16.064 3.30437 16.8454C2.52297 17.6268 2.08398 18.6866 2.08398 19.7917V21.875" stroke="#0E1B4D" stroke-width="2" stroke-linecap="round" stroke-linejoin="round"/>
<path d="M9.37565 11.4583C11.6768 11.4583 13.5423 9.59285 13.5423 7.29167C13.5423 4.99048 11.6768 3.125 9.37565 3.125C7.07446 3.125 5.20898 4.99048 5.20898 7.29167C5.20898 9.59285 7.07446 11.4583 9.37565 11.4583Z" stroke="#0E1B4D" stroke-width="2" stroke-linecap="round" stroke-linejoin="round"/>
<path d="M22.916 21.8763V19.793C22.9153 18.8698 22.6081 17.9729 22.0424 17.2433C21.4768 16.5137 20.6849 15.9925 19.791 15.7617M16.666 3.26172C17.5623 3.4912 18.3567 4.01245 18.924 4.74329C19.4913 5.47414 19.7992 6.373 19.7992 7.29818C19.7992 8.22335 19.4913 9.12222 18.924 9.85306C18.3567 10.5839 17.5623 11.1052 16.666 11.3346" stroke="#0E1B4D" stroke-width="2" stroke-linecap="round" stroke-linejoin="round"/>
</svg>
