<svg width="23" height="33" viewBox="0 0 23 33" fill="none" xmlns="http://www.w3.org/2000/svg">
<path d="M11.8127 16.4985C14.6201 16.4985 16.896 14.2227 16.896 11.4153C16.896 8.60787 14.6201 6.33203 11.8127 6.33203C9.00534 6.33203 6.72949 8.60787 6.72949 11.4153C6.72949 14.2227 9.00534 16.4985 11.8127 16.4985Z" stroke="#0E1B4D" stroke-width="2" stroke-linecap="round" stroke-linejoin="round"/>
<path d="M11.813 1.25C14.5093 1.25 17.0952 2.32111 19.0017 4.22769C20.9083 6.13428 21.9794 8.72016 21.9794 11.4165C21.9794 16.0348 15.1015 27.6151 12.6602 31.2953C12.5674 31.4351 12.4415 31.5498 12.2937 31.6291C12.1459 31.7085 11.9807 31.75 11.813 31.75C11.6452 31.75 11.48 31.7085 11.3322 31.6291C11.1844 31.5498 11.0585 31.4351 10.9658 31.2953C8.52444 27.6151 1.64648 16.0348 1.64648 11.4165C1.64648 8.72016 2.71759 6.13428 4.62418 4.22769C6.53076 2.32111 9.11664 1.25 11.813 1.25Z" stroke="#0E1B4D" stroke-width="2" stroke-linecap="round" stroke-linejoin="round"/>
</svg>
