<svg width="23" height="33" viewBox="0 0 23 33" fill="none" xmlns="http://www.w3.org/2000/svg">
<path d="M11.1662 16.4985C13.9736 16.4985 16.2495 14.2227 16.2495 11.4153C16.2495 8.60787 13.9736 6.33203 11.1662 6.33203C8.35885 6.33203 6.08301 8.60787 6.08301 11.4153C6.08301 14.2227 8.35885 16.4985 11.1662 16.4985Z" stroke="#0E1B4D" stroke-width="2" stroke-linecap="round" stroke-linejoin="round"/>
<path d="M11.1665 1.25C13.8628 1.25 16.4487 2.32111 18.3553 4.22769C20.2618 6.13428 21.333 8.72016 21.333 11.4165C21.333 16.0348 14.455 27.6151 12.0137 31.2953C11.9209 31.4351 11.7951 31.5498 11.6472 31.6291C11.4994 31.7085 11.3342 31.75 11.1665 31.75C10.9987 31.75 10.8335 31.7085 10.6857 31.6291C10.5379 31.5498 10.412 31.4351 10.3193 31.2953C7.87796 27.6151 1 16.0348 1 11.4165C1 8.72016 2.07111 6.13428 3.97769 4.22769C5.88428 2.32111 8.47016 1.25 11.1665 1.25Z" stroke="#0E1B4D" stroke-width="2" stroke-linecap="round" stroke-linejoin="round"/>
</svg>
