<svg width="16" height="16" viewBox="0 0 16 16" fill="none" xmlns="http://www.w3.org/2000/svg">
<g clip-path="url(#clip0_1086_315)">
<path d="M3.88489 5.79372C3.90373 5.80943 3.92583 5.82075 3.94958 5.82686C3.97333 5.83297 3.99815 5.83372 4.02223 5.82905L8.07556 5.05639C8.24047 5.02439 8.40999 5.02439 8.57489 5.05639L12.6262 5.82905C12.6505 5.83414 12.6756 5.83371 12.6997 5.82781C12.7238 5.8219 12.7463 5.81067 12.7655 5.79494C12.7847 5.7792 12.8001 5.75937 12.8106 5.73689C12.8211 5.71441 12.8265 5.68987 12.8262 5.66505V4.67839C12.8257 4.19232 12.6324 3.72631 12.2887 3.38261C11.945 3.03891 11.479 2.84558 10.9929 2.84505H9.82623C9.78202 2.84505 9.73963 2.82749 9.70838 2.79624C9.67712 2.76498 9.65956 2.72259 9.65956 2.67839V0.345052C9.65956 0.256647 9.62444 0.171862 9.56193 0.10935C9.49942 0.0468377 9.41463 0.0117188 9.32623 0.0117188H7.32623C7.23782 0.0117188 7.15304 0.0468377 7.09052 0.10935C7.02801 0.171862 6.99289 0.256647 6.99289 0.345052V2.67839C6.99289 2.72259 6.97533 2.76498 6.94408 2.79624C6.91282 2.82749 6.87043 2.84505 6.82623 2.84505H5.65756C5.17155 2.84576 4.70564 3.03914 4.36198 3.3828C4.01831 3.72647 3.82493 4.19237 3.82423 4.67839V5.66439C3.82398 5.68912 3.8293 5.71358 3.83981 5.73597C3.85031 5.75836 3.86572 5.7781 3.88489 5.79372Z" fill="#606060"/>
<path d="M8.8927 6.20001C8.87379 6.21571 8.85856 6.23537 8.84807 6.25761C8.83759 6.27984 8.83212 6.3041 8.83203 6.32868V12.2413C8.83215 12.275 8.8424 12.3077 8.86142 12.3355C8.88045 12.3632 8.90738 12.3845 8.9387 12.3967C9.33292 12.5487 9.65416 12.8456 9.8367 13.2267C9.90971 13.35 10.0124 13.4532 10.1355 13.5266C10.2586 13.6001 10.3981 13.6416 10.5414 13.6473C10.7392 13.6382 10.932 13.582 11.1039 13.4834C11.2757 13.3849 11.4215 13.2468 11.5294 13.0807C11.6735 12.8314 11.8818 12.6254 12.1326 12.484C12.3834 12.3426 12.6675 12.271 12.9554 12.2767C13.1728 12.2768 13.3882 12.3194 13.5894 12.402C13.6116 12.4109 13.6354 12.415 13.6593 12.414C13.6833 12.413 13.7067 12.4068 13.728 12.396C13.7494 12.3853 13.7682 12.3701 13.7832 12.3515C13.7981 12.3328 13.8089 12.3112 13.8147 12.288L14.9754 7.65801C14.9864 7.614 14.9884 7.56819 14.9811 7.52339C14.9739 7.47859 14.9575 7.43575 14.9331 7.39749C14.9087 7.35923 14.8768 7.32635 14.8392 7.30088C14.8016 7.2754 14.7593 7.25787 14.7147 7.24934L9.03003 6.16268C9.0058 6.15842 8.98094 6.15956 8.9572 6.16602C8.93346 6.17247 8.91144 6.18408 8.8927 6.20001Z" fill="#606060"/>
<path d="M2.81336 12.1823C2.82367 12.2239 2.8497 12.2599 2.88599 12.2828C2.92228 12.3057 2.96602 12.3136 3.00803 12.3049C3.10542 12.2848 3.20457 12.2743 3.30403 12.2736C3.58757 12.2731 3.86654 12.345 4.11456 12.4824C4.36257 12.6199 4.57142 12.8183 4.72136 13.0589C4.83685 13.2211 4.98526 13.3571 5.15689 13.4579C5.32852 13.5588 5.5195 13.6223 5.71736 13.6443C5.96287 13.6197 6.20112 13.5469 6.41847 13.4301C6.63582 13.3133 6.82801 13.1548 6.98403 12.9636C7.17242 12.7063 7.43163 12.5094 7.73003 12.3969C7.76146 12.3849 7.78849 12.3636 7.80754 12.3359C7.82659 12.3081 7.83675 12.2753 7.83669 12.2416V6.32295C7.83674 6.29841 7.83138 6.27417 7.82102 6.25194C7.81065 6.2297 7.79552 6.21002 7.77669 6.19428C7.75769 6.17885 7.73559 6.16771 7.71189 6.16161C7.68818 6.15551 7.66345 6.15461 7.63936 6.15895L1.93869 7.24628C1.89412 7.25481 1.85175 7.27234 1.8142 7.29782C1.77664 7.32329 1.74468 7.35617 1.72027 7.39443C1.69587 7.43269 1.67953 7.47553 1.67227 7.52033C1.665 7.56513 1.66696 7.61094 1.67803 7.65495L2.81336 12.1823Z" fill="#606060"/>
<path d="M15.9951 15.1848C15.9836 15.098 15.955 15.0143 15.9111 14.9385C15.8671 14.8628 15.8087 14.7964 15.7391 14.7432C15.6695 14.69 15.5902 14.6511 15.5055 14.6286C15.4209 14.6061 15.3326 14.6005 15.2458 14.6122C14.1665 14.7575 13.4205 13.6122 13.4151 13.6035C13.3497 13.5116 13.2629 13.437 13.1621 13.3862C13.0614 13.3353 12.9499 13.3097 12.8371 13.3116C12.7242 13.3135 12.6136 13.3429 12.5147 13.3971C12.4157 13.4513 12.3315 13.5288 12.2691 13.6228C12.0772 13.9237 11.8142 14.1729 11.5034 14.3483C11.1925 14.5237 10.8433 14.62 10.4865 14.6288C10.1651 14.6209 9.85153 14.5279 9.57782 14.3592C9.30411 14.1906 9.08004 13.9523 8.92847 13.6688C8.87343 13.5698 8.79501 13.4857 8.70006 13.4239C8.6051 13.3621 8.49648 13.3244 8.38364 13.3142C8.2708 13.3039 8.15717 13.3214 8.05263 13.3651C7.94808 13.4088 7.8558 13.4773 7.78381 13.5648C7.54143 13.8741 7.23667 14.1289 6.88934 14.3127C6.542 14.4965 6.15988 14.6051 5.76781 14.6315C5.41021 14.611 5.06227 14.5077 4.75149 14.3296C4.4407 14.1516 4.1756 13.9037 3.97714 13.6055C3.9168 13.5191 3.83761 13.4476 3.74554 13.3963C3.65348 13.3451 3.55096 13.3154 3.44575 13.3096C3.34054 13.3039 3.23539 13.3221 3.13826 13.3629C3.04114 13.4038 2.95458 13.4662 2.88514 13.5455C2.87514 13.5582 1.86381 14.7855 0.751807 14.6422C0.576981 14.6202 0.400562 14.6683 0.261111 14.776C0.12166 14.8837 0.0305198 15.0422 0.00761318 15.2169C-0.0152935 15.3916 0.0318961 15.5683 0.138867 15.7083C0.245838 15.8484 0.403889 15.9403 0.578474 15.9642C0.698284 15.9798 0.818984 15.9876 0.939807 15.9875C1.79959 15.9482 2.6194 15.6131 3.26047 15.0388C3.2914 15.0133 3.33044 14.9996 3.37055 15.0004C3.41065 15.0011 3.44917 15.0162 3.47914 15.0428C4.09971 15.6255 4.91661 15.9536 5.76781 15.9622C6.63573 15.9486 7.47274 15.6377 8.13914 15.0815C8.17088 15.056 8.21085 15.043 8.2515 15.045C8.29214 15.047 8.33067 15.0637 8.35981 15.0922C8.63935 15.3701 8.97125 15.5898 9.3363 15.7386C9.70135 15.8873 10.0923 15.9622 10.4865 15.9588C11.3191 15.9598 12.1224 15.6508 12.7398 15.0922C12.7704 15.0649 12.8099 15.0498 12.8508 15.0498C12.8918 15.0498 12.9313 15.0649 12.9618 15.0922C13.2843 15.4057 13.6724 15.6436 14.098 15.7889C14.5237 15.9342 14.9763 15.9831 15.4231 15.9322C15.598 15.9086 15.7563 15.8167 15.8635 15.6766C15.9707 15.5366 16.0181 15.3597 15.9951 15.1848Z" fill="#606060"/>
</g>
<defs>
<clipPath id="clip0_1086_315">
<rect width="16" height="16" fill="white"/>
</clipPath>
</defs>
</svg>
