<svg xmlns="http://www.w3.org/2000/svg" fill="none" viewBox="0 0 34 27"><path stroke="#0e1b4d" stroke-linecap="round" stroke-linejoin="round" stroke-width="2" d="M32.866 25.436a4.67 4.67 0 0 1-3.966-2.222 4.695 4.695 0 0 1-7.978 0 4.68 4.68 0 0 1-3.985 2.222c-2.068 0-5.484-3.14-7.623-5.34a1.057 1.057 0 0 0-1.806.6c-.142 1.313-.676 2.614-2.254 2.614a4.74 4.74 0 0 1-4.25-3.187m16.996 0 4.887-1.223a8.5 8.5 0 0 0 5.398-4.174l4.59-8.415L1 12.685m24.286-4.857L18 4.186 4.188 6.31"/><path stroke="#0e1b4d" stroke-linecap="round" stroke-linejoin="round" stroke-width="2" d="M6.313 11.624 4.188 6.31l-2.222-3.7A1.061 1.061 0 0 1 2.877 1h3.436l5.227 4.18"/></svg>