<svg fill="none" shape-rendering="geometricPrecision" viewBox="0 0 45 45"><circle cx="22.5" cy="22.5" r="22.5" fill="#2f2f2f"/><path fill="#fff" d="M29.516 16.33a5 5 0 0 1-.424-.247 6 6 0 0 1-1.09-.926 5.15 5.15 0 0 1-1.23-2.535h.005c-.093-.548-.054-.903-.049-.903h-3.703v14.32c0 .192 0 .382-.008.57q0 .034-.004.07l-.002.032v.008a3.14 3.14 0 0 1-1.582 2.496 3.1 3.1 0 0 1-1.532.404 3.134 3.134 0 0 1-3.124-3.144 3.134 3.134 0 0 1 3.124-3.145c.326 0 .65.051.961.152l.005-3.77a6.88 6.88 0 0 0-5.3 1.55 7.3 7.3 0 0 0-1.587 1.956c-.156.27-.746 1.352-.817 3.11-.045.998.255 2.032.397 2.459v.009c.09.251.438 1.11 1.006 1.834.457.58.998 1.09 1.604 1.513v-.01l.009.01c1.793 1.218 3.78 1.138 3.78 1.138.345-.014 1.497 0 2.806-.62 1.452-.688 2.279-1.713 2.279-1.713a7.1 7.1 0 0 0 1.241-2.063c.335-.88.447-1.937.447-2.36v-7.597c.045.027.644.423.644.423s.862.553 2.207.912c.965.256 2.265.31 2.265.31v-3.676c-.456.05-1.38-.094-2.328-.567"/></svg>