<svg width="18" height="19" viewBox="0 0 18 19" fill="none" xmlns="http://www.w3.org/2000/svg" shape-rendering="geometricPrecision">
<path d="M9 17.5C13.4183 17.5 17 13.9183 17 9.5C17 5.08172 13.4183 1.5 9 1.5C4.58172 1.5 1 5.08172 1 9.5C1 13.9183 4.58172 17.5 9 17.5Z" stroke="#2f2f2f" stroke-width="1.5" stroke-miterlimit="10" stroke-linecap="round" stroke-linejoin="round" vector-effect="non-scaling-stroke"/>
<path d="M6 6.93008C6 6.88148 6.02683 6.83717 6.06956 6.81842C6.46156 6.64638 7.28388 6.40309 8.08642 6.54031C9.17901 6.72711 9.51235 7.16514 9.64815 7.27465C9.77691 7.37848 10.5936 8.25809 11.8143 7.59722C11.8968 7.55256 12 7.61239 12 7.7098V9.97989C12 10.0322 11.9688 10.0789 11.9219 10.0967L9.50648 11.0135C9.41097 11.0498 9.39948 11.1893 9.48178 11.2517C9.50288 11.2677 9.52339 11.2841 9.54321 11.3007C10.0432 11.7194 10.3025 11.9641 10.8333 11.9641C11.2561 11.9641 11.5535 11.8538 11.8192 11.7081C11.9004 11.6635 12 11.7232 12 11.8193V13.2014C12 13.2524 11.9706 13.2984 11.9245 13.3151C11.6059 13.4303 10.9643 13.5773 10.3333 13.4521C9.6321 13.313 9.107 12.9347 8.9321 12.7629C8.68724 12.5503 8.08518 12.1329 7.6358 12.1638C7.11178 12.1999 7.00677 12.1687 6.16816 12.5618C6.08943 12.5987 6 12.5386 6 12.4482V10.2193C6 10.167 6.03124 10.1203 6.07814 10.1025L9.21412 8.91214C9.24058 8.9021 9.24461 8.86429 9.22222 8.8464V8.8464C8.9321 8.6145 8.16049 8.00255 7.5679 8.02832C7.04627 8.051 6.65857 8.17349 6.17743 8.43536C6.09725 8.479 6 8.41906 6 8.32428V6.93008Z" fill="#2f2f2f"/>
</svg>
