<svg fill="none" viewBox="0 0 18 18"><path fill="#fff" d="M6.07 6.318c.391-.172 1.214-.415 2.016-.278 1.093.187 1.427.625 1.562.734.13.104.946.984 2.167.324A.126.126 0 0 1 12 7.21v2.27a.13.13 0 0 1-.078.117l-2.415.917c-.096.036-.108.176-.026.238q.033.024.062.049c.5.418.76.663 1.29.663.423 0 .72-.11.986-.256a.123.123 0 0 1 .181.111v1.382a.12.12 0 0 1-.075.114c-.319.116-.961.262-1.592.137-.701-.139-1.226-.518-1.401-.69-.245-.212-.847-.629-1.296-.598-.524.036-.63.004-1.468.398-.079.036-.168-.023-.168-.114V9.72c0-.053.031-.1.078-.117l3.136-1.19c.026-.01.03-.048.009-.066-.29-.232-1.062-.844-1.655-.819-.521.023-.91.146-1.39.408-.08.043-.178-.017-.178-.112V6.43a.12.12 0 0 1 .07-.112"/><path fill="#fff" fill-rule="evenodd" d="M9 .25a8.75 8.75 0 1 1 0 17.5A8.75 8.75 0 0 1 9 .25m0 1.5a7.25 7.25 0 1 0 0 14.5 7.25 7.25 0 0 0 0-14.5" clip-rule="evenodd"/></svg>