<svg fill="none" shape-rendering="geometricPrecision" viewBox="0 0 110 31"><path fill="#fff" d="M24.65 29.5a.55.55 0 0 1-.488-.535l-.26-18.047a.547.547 0 0 1 .582-.553l5.732.381a.547.547 0 0 1 .51.538l.26 18.278a.547.547 0 0 1-.604.551z"/><path fill="#fff" fill-rule="evenodd" d="m34.596 3.845 4.916-.796c.244.001.45.18.487.422l.126.835c.062.41.575.572.882.292 1.378-1.258 2.782-1.623 4.213-1.615 1.897.01 3.275.77 4.393 2.278 1.118 1.497 1.669 3.465 1.652 6.422q-.015 2.54-.63 4.468c-.41 1.273-.844 2.283-1.56 3.03-.703.736-1.483 1.156-2.338 1.521a7.1 7.1 0 0 1-2.76.521c-.877-.005-1.826-.008-2.848-.269a.51.51 0 0 0-.639.485l-.029 5.121a.496.496 0 0 1-.42.488l-5.508.833a.495.495 0 0 1-.568-.493l.134-23.05a.495.495 0 0 1 .497-.493m8.226 4.512c-.628-.003-1.336.516-2.127 1.299a.48.48 0 0 0-.14.34l-.032 5.615a.47.47 0 0 0 .315.456c.52.176 1.005.395 1.46.398.782.005 1.407-.456 1.873-1.12.478-.678.85-1.75.859-3.216.013-2.42-.81-3.764-2.208-3.772" clip-rule="evenodd"/><path fill="#fff" d="M30.896 4.67a3.502 3.502 0 1 1-7.003 0 3.502 3.502 0 0 1 7.003 0m21.557 17.278a.41.41 0 0 1-.208-.491l1.243-3.901a.415.415 0 0 1 .603-.232c1.082.625 2.069 1.131 3.336 1.519q2.179.64 3.818.64 1.959 0 1.959-1.08 0-.52-.56-.86-.54-.34-2.359-.819-2.078-.54-3.377-1.06a9.8 9.8 0 0 1-2.279-1.258q-.96-.76-1.379-1.78-.4-1.018-.4-2.478 0-3.037 2.099-4.816 2.118-1.78 5.956-1.78 4.12 0 7.487 1.434c.17.073.268.253.24.436l-.683 4.398a.42.42 0 0 1-.602.31 18.6 18.6 0 0 0-3.084-1.18q-1.84-.52-3.278-.52-1.599 0-1.599.899 0 .5.56.82.58.32 2.518.859 4.257 1.16 5.796 2.498 1.54 1.34 1.54 4.078 0 3.338-2.18 5.076-2.178 1.72-6.295 1.72c-3.037 0-6.238-1.137-8.873-2.432m18.245-11.275q0-4.917 2.718-7.795Q76.155 0 80.491 0q2.319 0 4.097.82 1.78.798 2.858 2.258 1.08 1.46 1.62 3.358t.539 4.197q0 1.048-.07 1.645a.384.384 0 0 1-.388.334H78.435c-.253 0-.448.227-.386.473q.735 2.925 4.48 2.925 2.51 0 5.81-1.563a.42.42 0 0 1 .603.378l-.022 4.062a.41.41 0 0 1-.21.355c-2.345 1.3-4.312 1.824-7.16 1.824q-2.438 0-4.417-.62-1.979-.64-3.418-1.898-1.44-1.26-2.238-3.258-.78-1.998-.78-4.617m7.126-2.215a.403.403 0 0 0 .405.416h4.118a.403.403 0 0 0 .405-.423q-.107-1.867-.701-2.875-.66-1.119-1.779-1.119-1.14 0-1.799 1.14-.576 1.008-.65 2.861m12.932 10.856q0-3.457 2.658-5.277 2.622-1.813 8.275-2.324a.176.176 0 0 0 .16-.174q0-1.14-.66-1.679-.64-.54-2.078-.54-2.745 0-5.867 1.239a.42.42 0 0 1-.57-.322l-.689-4.47a.406.406 0 0 1 .256-.443q3.694-1.4 8.089-1.4 4.537 0 6.675 1.639 2.139 1.638 2.139 5.596V24.1a.41.41 0 0 1-.412.411h-5.796a.41.41 0 0 1-.406-.342l-.226-1.324c-.057-.33-.467-.46-.716-.236q-1.104.998-2.258 1.583-1.44.72-3.218.72-2.398 0-3.877-1.44-1.48-1.44-1.48-4.157m7.155-1.1q0 .82.42 1.28.44.44 1.14.44 1.013 0 2.257-.918a.4.4 0 0 0 .161-.324v-3.4a.4.4 0 0 0-.5-.394q-1.75.46-2.558 1.198-.92.84-.92 2.119M0 2.936c0-.162.093-.308.242-.37 1.364-.571 4.224-1.377 7.016-.923 3.8.62 4.96 2.072 5.433 2.435.447.344 3.288 3.26 7.535 1.07.287-.149.646.05.646.372v7.526a.41.41 0 0 1-.272.388l-8.402 3.039c-.332.12-.373.582-.086.79q.11.08.213.162c1.74 1.388 2.642 2.2 4.488 2.2 1.47 0 2.506-.366 3.43-.85.282-.147.629.05.629.37v4.58c0 .17-.103.323-.263.378-1.108.382-3.34.87-5.535.454-2.44-.461-4.266-1.715-4.874-2.285-.852-.704-2.946-2.088-4.51-1.986-1.823.12-2.188.016-5.105 1.32A.415.415 0 0 1 0 21.229v-7.39a.41.41 0 0 1 .272-.386L11.18 9.506c.092-.033.106-.158.028-.218-1.01-.768-3.693-2.797-5.755-2.712-1.814.076-3.163.482-4.837 1.35A.42.42 0 0 1 0 7.558z"/></svg>