<svg width="1880" height="701" viewBox="0 0 1880 701" fill="none" xmlns="http://www.w3.org/2000/svg">
<path d="M1850 0C1866.57 0 1880 13.4315 1880 30V682.292C1880 685.805 1877.59 688.856 1874.18 689.702C1859.59 693.322 1846.89 696.021 1836.06 697.812C1825.21 699.608 1816.39 700.466 1809.52 700.466C1802.71 700.466 1798.03 699.629 1795 698.122C1791.89 696.581 1790.12 694.152 1790.12 690.644C1790.12 686.877 1788.23 683.848 1784 681.751C1779.71 679.62 1773.39 678.638 1765.54 678.638C1757.75 678.638 1748.24 679.6 1737.11 681.442C1725.94 683.289 1712.99 686.047 1698.25 689.702C1683.67 693.322 1670.96 696.021 1660.14 697.812C1649.28 699.608 1640.47 700.466 1633.6 700.466C1626.78 700.466 1622.11 699.629 1619.07 698.122C1615.97 696.581 1614.19 694.152 1614.19 690.644C1614.19 686.877 1612.3 683.848 1608.08 681.751C1603.78 679.62 1597.46 678.638 1589.61 678.638C1581.82 678.638 1572.31 679.6 1561.18 681.442C1550.02 683.289 1537.06 686.047 1522.33 689.702C1507.74 693.322 1495.04 696.021 1484.21 697.812C1473.36 699.608 1464.54 700.466 1457.67 700.466C1450.86 700.466 1446.18 699.629 1443.15 698.122C1440.04 696.581 1438.27 694.152 1438.27 690.644C1438.27 686.877 1436.38 683.848 1432.15 681.751C1428.13 679.753 1422.32 678.765 1415.14 678.649L1413.69 678.638C1405.9 678.638 1396.39 679.6 1385.26 681.442C1374.09 683.289 1361.14 686.047 1346.41 689.702C1331.82 693.322 1319.11 696.021 1308.29 697.812C1297.43 699.608 1288.61 700.466 1281.75 700.466C1274.93 700.466 1270.26 699.629 1267.22 698.122C1264.12 696.581 1262.34 694.152 1262.34 690.644C1262.34 686.877 1260.45 683.848 1256.23 681.751C1252.2 679.753 1246.39 678.765 1239.22 678.649L1237.76 678.638C1229.97 678.638 1220.47 679.6 1209.33 681.442C1198.17 683.289 1185.21 686.047 1170.48 689.702C1155.89 693.322 1143.19 696.021 1132.36 697.812C1121.51 699.608 1112.69 700.466 1105.82 700.466C1099.01 700.466 1094.33 699.629 1091.3 698.122C1088.19 696.581 1086.42 694.152 1086.42 690.644C1086.42 686.877 1084.53 683.848 1080.3 681.751C1076.28 679.753 1070.47 678.765 1063.29 678.649L1061.84 678.638C1054.05 678.638 1044.54 679.6 1033.41 681.442C1022.24 683.289 1009.29 686.047 994.555 689.702C979.966 693.322 967.265 696.021 956.438 697.812C945.583 699.608 936.764 700.466 929.895 700.466C923.083 700.466 918.409 699.629 915.372 698.122C912.267 696.581 910.491 694.152 910.491 690.644C910.491 686.877 908.602 683.848 904.377 681.751C900.084 679.62 893.762 678.638 885.913 678.638C878.123 678.638 868.615 679.6 857.48 681.442C846.317 683.289 833.361 686.047 818.631 689.702C804.042 693.322 791.339 696.021 780.513 697.812C769.658 699.608 760.839 700.466 753.97 700.466C747.159 700.466 742.484 699.629 739.447 698.122C736.342 696.581 734.567 694.152 734.566 690.644C734.566 686.877 732.676 683.848 728.451 681.751C724.426 679.753 718.619 678.765 711.441 678.649L709.988 678.638C702.198 678.638 692.69 679.6 681.556 681.442C670.392 683.289 657.435 686.047 642.704 689.702C628.115 693.322 615.414 696.021 604.588 697.812C593.733 699.608 584.914 700.466 578.044 700.466C571.233 700.466 566.558 699.629 563.521 698.122C560.417 696.581 558.641 694.152 558.641 690.644C558.641 686.877 556.751 683.848 552.526 681.751C548.233 679.62 541.912 678.638 534.063 678.638C526.273 678.638 516.765 679.6 505.63 681.442C494.466 683.289 481.511 686.047 466.78 689.702C452.191 693.322 439.489 696.021 428.663 697.812C417.808 699.608 408.989 700.466 402.119 700.466C395.308 700.466 390.633 699.629 387.597 698.122C384.492 696.581 382.716 694.152 382.716 690.644C382.716 686.877 380.826 683.848 376.602 681.751C372.576 679.753 366.768 678.765 359.591 678.649L358.138 678.638C350.347 678.638 340.84 679.6 329.705 681.442C318.542 683.289 305.586 686.047 290.855 689.702C276.266 693.322 263.564 696.021 252.737 697.812C241.882 699.608 233.064 700.466 226.194 700.466C219.383 700.466 214.709 699.629 211.672 698.122C208.567 696.581 206.79 694.152 206.79 690.644C206.79 686.877 204.901 683.848 200.676 681.751C196.382 679.62 190.061 678.638 182.213 678.638C174.422 678.638 164.914 679.6 153.779 681.442C142.616 683.289 129.66 686.047 114.93 689.702C100.341 693.322 87.6389 696.021 76.8125 697.812C65.9571 699.608 57.1383 700.466 50.2686 700.466C43.4573 700.466 38.7828 699.629 35.7461 698.122C32.641 696.581 30.8654 694.152 30.8652 690.644C30.8652 686.877 28.9759 683.848 24.751 681.751C20.7258 679.753 14.9179 678.765 7.74023 678.649L6.28711 678.638C2.87139 678.638 4.64519e-05 675.949 0 672.533V30C0 13.4315 13.4315 4.59404e-07 30 0H1850Z" fill="black"/>
</svg>
