<svg width="1699" height="634" viewBox="0 0 1699 634" fill="none" xmlns="http://www.w3.org/2000/svg">
<path d="M1669 0C1685.57 1.21443e-05 1699 13.4315 1699 30V616.604C1699 619.778 1696.82 622.535 1693.74 623.3C1680.56 626.571 1669.08 629.011 1659.29 630.63C1649.48 632.253 1641.51 633.027 1635.31 633.027C1629.15 633.027 1624.93 632.271 1622.18 630.909C1619.38 629.516 1617.77 627.322 1617.77 624.15C1617.77 620.746 1616.06 618.009 1612.25 616.114C1608.37 614.189 1602.65 613.301 1595.56 613.301C1588.52 613.301 1579.93 614.17 1569.86 615.835C1559.77 617.504 1548.07 619.996 1534.75 623.3C1521.57 626.571 1510.09 629.011 1500.31 630.63C1490.5 632.253 1482.53 633.027 1476.32 633.027C1470.16 633.027 1465.94 632.271 1463.19 630.909C1460.39 629.516 1458.78 627.322 1458.78 624.15C1458.78 620.746 1457.08 618.009 1453.26 616.114C1449.38 614.189 1443.66 613.301 1436.57 613.301C1429.53 613.301 1420.94 614.17 1410.88 615.835C1400.79 617.504 1389.08 619.996 1375.77 623.3C1362.58 626.572 1351.1 629.011 1341.32 630.63C1331.51 632.253 1323.54 633.027 1317.33 633.027C1311.17 633.027 1306.95 632.271 1304.21 630.909C1301.4 629.516 1299.79 627.322 1299.79 624.15C1299.79 620.746 1298.09 618.009 1294.27 616.114C1290.63 614.309 1285.38 613.416 1278.9 613.312L1277.58 613.301C1270.54 613.301 1261.95 614.17 1251.89 615.835C1241.8 617.504 1230.09 619.996 1216.78 623.3C1203.59 626.572 1192.11 629.011 1182.33 630.63C1172.52 632.253 1164.55 633.027 1158.34 633.027C1152.19 633.027 1147.96 632.271 1145.22 630.909C1142.41 629.516 1140.81 627.322 1140.81 624.15C1140.81 620.746 1139.1 618.009 1135.28 616.114C1131.64 614.309 1126.4 613.416 1119.91 613.312L1118.6 613.301C1111.56 613.301 1102.96 614.17 1092.9 615.835C1082.81 617.504 1071.1 619.996 1057.79 623.3C1044.61 626.572 1033.13 629.011 1023.34 630.63C1013.53 632.253 1005.56 633.027 999.355 633.027C993.2 633.027 988.975 632.271 986.23 630.909C983.424 629.516 981.819 627.322 981.819 624.15C981.819 620.746 980.112 618.009 976.294 616.114C972.656 614.309 967.408 613.416 960.922 613.312L959.608 613.301C952.568 613.301 943.975 614.17 933.912 615.835C923.823 617.504 912.115 619.996 898.803 623.3C885.618 626.572 874.14 629.011 864.355 630.63C854.545 632.253 846.576 633.027 840.367 633.027C834.212 633.027 829.988 632.271 827.243 630.909C824.437 629.516 822.832 627.322 822.832 624.15C822.832 620.746 821.125 618.009 817.307 616.114C813.427 614.189 807.713 613.301 800.62 613.301C793.58 613.301 784.987 614.17 774.925 615.835C764.836 617.504 753.128 619.996 739.815 623.3C726.631 626.572 715.151 629.011 705.367 630.63C695.557 632.253 687.588 633.027 681.38 633.027C675.225 633.027 671 632.271 668.256 630.909C665.45 629.516 663.845 627.322 663.845 624.15C663.845 620.746 662.137 618.009 658.318 616.114C654.681 614.309 649.433 613.416 642.946 613.312L641.633 613.301C634.592 613.301 626 614.17 615.938 615.835C605.849 617.504 594.14 619.996 580.827 623.3C567.642 626.572 556.164 629.011 546.38 630.63C536.569 632.253 528.6 633.027 522.392 633.027C516.236 633.027 512.012 632.271 509.268 630.909C506.461 629.516 504.856 627.322 504.856 624.15C504.856 620.746 503.149 618.009 499.331 616.114C495.451 614.189 489.739 613.301 482.646 613.301C475.605 613.301 467.012 614.17 456.949 615.835C446.86 617.504 435.152 619.996 421.84 623.3C408.655 626.571 397.177 629.011 387.393 630.63C377.582 632.253 369.613 633.027 363.404 633.027C357.249 633.027 353.025 632.271 350.28 630.909C347.474 629.516 345.869 627.322 345.869 624.15C345.869 620.746 344.162 618.009 340.344 616.114C336.706 614.309 331.457 613.416 324.971 613.312L323.657 613.301C316.617 613.301 308.025 614.17 297.962 615.835C287.873 617.504 276.165 619.996 262.853 623.3C249.668 626.572 238.189 629.011 228.404 630.63C218.594 632.253 210.625 633.027 204.417 633.027C198.262 633.027 194.037 632.271 191.293 630.909C188.487 629.516 186.881 627.322 186.881 624.15C186.881 620.746 185.174 618.009 181.355 616.114C177.475 614.189 171.763 613.301 164.67 613.301C157.629 613.301 149.036 614.17 138.974 615.835C128.885 617.504 117.177 619.996 103.864 623.3C90.6796 626.572 79.2012 629.011 69.417 630.63C59.6066 632.253 51.6371 633.027 45.4287 633.027C39.2732 633.027 35.049 632.271 32.3047 630.909C29.4984 629.516 27.8936 627.322 27.8936 624.15C27.8935 620.746 26.1863 618.009 22.3682 616.114C18.7305 614.309 13.4818 613.416 6.99512 613.312L5.68164 613.301C2.59485 613.301 0.000162856 610.871 0 607.784V30C8.8626e-06 13.4315 13.4315 1.72149e-07 30 0H1669Z" fill="black"/>
</svg>
