<svg width="14" height="13" viewBox="0 0 14 13" fill="none" xmlns="http://www.w3.org/2000/svg">
<path d="M13.5878 6.13858C13.769 5.96469 13.8944 5.74074 13.9478 5.49531C14.0012 5.24987 13.9803 4.99408 13.8878 4.76058C13.7924 4.53062 13.6297 4.33488 13.4211 4.19906C13.2125 4.06325 12.9676 3.99371 12.7188 3.99958H10.2188C10.1701 3.99968 10.1225 3.98553 10.0818 3.95887C10.0411 3.93222 10.0091 3.89422 9.98975 3.84958L8.64475 0.731581L8.63175 0.69958C8.5226 0.488767 8.3576 0.312012 8.15479 0.188634C7.95197 0.0652554 7.71915 0 7.48175 0C7.24436 0 7.01153 0.0652554 6.80872 0.188634C6.6059 0.312012 6.4409 0.488767 6.33175 0.69958L6.31975 0.72758L4.97075 3.84858C4.95113 3.89322 4.91893 3.93118 4.87808 3.95782C4.83724 3.98446 4.78952 3.99862 4.74075 3.99858H2.24075C1.99171 3.99251 1.74667 4.06208 1.53797 4.19812C1.32927 4.33416 1.16672 4.53027 1.07175 4.76058C0.978908 4.99404 0.957861 5.2499 1.01131 5.4954C1.06475 5.74089 1.19026 5.96485 1.37175 6.13858L3.57975 8.10958C3.61908 8.14473 3.64633 8.19138 3.65764 8.2429C3.66895 8.29442 3.66374 8.34819 3.64275 8.39658L2.42275 11.2116C2.3141 11.4554 2.28615 11.7276 2.343 11.9884C2.39984 12.2492 2.53849 12.4851 2.73875 12.6616C2.93879 12.8467 3.19297 12.9628 3.46389 12.9927C3.73481 13.0225 4.00817 12.9647 4.24375 12.8276L7.35675 11.0756C7.39419 11.0546 7.43636 11.0437 7.47925 11.0437C7.52214 11.0437 7.56432 11.0546 7.60175 11.0756L10.7148 12.8276C10.9505 12.9646 11.224 13.0224 11.4951 12.9925C11.7661 12.9627 12.0205 12.8467 12.2208 12.6616C12.4207 12.4849 12.5591 12.2489 12.6157 11.9882C12.6724 11.7274 12.6444 11.4553 12.5358 11.2116L11.3128 8.39958C11.2915 8.35124 11.2861 8.29739 11.2974 8.2458C11.3087 8.1942 11.3362 8.14755 11.3758 8.11258L13.5878 6.13858Z" fill="#F7F170"/>
</svg>
